<?xml version="1.0" encoding="utf-8"?>
<!-- Generator: Adobe Illustrator 28.0.0, SVG Export Plug-In . SVG Version: 6.00 Build 0)  -->
<svg version="1.1" id="Layer_1" xmlns="http://www.w3.org/2000/svg" xmlns:xlink="http://www.w3.org/1999/xlink" x="0px" y="0px"
	 viewBox="0 0 104.17 83.74" style="enable-background:new 0 0 104.17 83.74;" xml:space="preserve">
<style type="text/css">
	.st0{fill:none;stroke:#FFFFFF;stroke-miterlimit:10;}
	.st1{fill:#1CA2C8;}
	.st2{fill:#194C9F;}
	.st3{opacity:0.78;fill:#20A4CA;}
</style>
<path class="st0" d="M66.57,29.27"/>
<ellipse class="st1" cx="81.33" cy="27.48" rx="14.38" ry="15.14"/>
<path class="st2" d="M56.27,75.78l-1.26,0.92c-6.9,5.03-16.37,3.22-21.15-4.05L6.49,31.01c-4.78-7.27-3.06-17.24,3.85-22.27
	l1.26-0.92c6.9-5.03,16.37-3.22,21.15,4.05l27.37,41.64C64.9,60.78,63.18,70.75,56.27,75.78z"/>
<path class="st3" d="M69.55,66.12L55.53,76.33c-0.59,0.43-1.39,0.27-1.8-0.34L24.77,31.93c-4.75-7.22-3.04-17.13,3.82-22.12
	l4.09-2.98c6.86-5,16.26-3.2,21.01,4.02l20.11,30.6C79.1,49.5,77.19,60.54,69.55,66.12z"/>
<path d="M-80.06,133.88"/>
</svg>
